<svg xmlns="http://www.w3.org/2000/svg" xmlns:xlink="http://www.w3.org/1999/xlink" version="1.1" x="0px" y="0px" viewBox="0 0 100 100" enable-background="new 0 0 100 100" xml:space="preserve"><g><path fill="#1f4973" d="M50.104,5C33.913,5,20.786,18.125,20.786,34.319c0,14.377,6.98,17.751,12.003,26.222   c2.475,4.176,1.529,6.145,2.014,9.104c0.123,0.779,0.795,1.377,1.611,1.377h13.69h13.692c0.818,0,1.488-0.598,1.613-1.377   c0.484-2.959-0.463-4.928,2.012-9.104c5.022-8.471,12.004-11.845,12.004-26.222C79.425,18.125,66.299,5,50.104,5z M52.576,16.67   c-10.933,0-19.83,8.896-19.83,19.83c0,1.147-0.932,2.078-2.08,2.078c-1.146,0-2.078-0.931-2.078-2.078   c0-13.226,10.761-23.987,23.987-23.987c1.149,0,2.079,0.931,2.079,2.079S53.726,16.67,52.576,16.67z"></path><path fill="#1f4973" d="M61.816,87.421H38.392c-0.897,0-1.626,0.729-1.626,1.629c0,0.897,0.729,1.625,1.626,1.625h5.115   c0.008,0.458,0.017,0.927,0.017,1.438c0,1.596,1.291,2.888,2.888,2.888h7.229c1.595,0,2.888-1.292,2.888-2.888   c0-0.511,0.007-0.979,0.011-1.438h5.277c0.901,0,1.628-0.728,1.628-1.625C63.444,88.149,62.718,87.421,61.816,87.421z"></path><path fill="#1f4973" d="M62.479,73.1H37.734c-1.405,0-2.542,1.14-2.542,2.542c0,1.404,1.137,2.541,2.542,2.541h24.745   c1.401,0,2.54-1.137,2.54-2.541C65.019,74.239,63.88,73.1,62.479,73.1z"></path><path fill="#1f4973" d="M62.479,80.261H37.734c-1.405,0-2.542,1.138-2.542,2.542c0,1.402,1.137,2.539,2.542,2.539h24.745   c1.401,0,2.54-1.137,2.54-2.539C65.019,81.398,63.88,80.261,62.479,80.261z"></path></g></svg>
