<?xml version="1.0" encoding="iso-8859-1"?>
<!-- Generator: Adobe Illustrator 19.0.0, SVG Export Plug-In . SVG Version: 6.00 Build 0)  -->
<svg xmlns="http://www.w3.org/2000/svg" xmlns:xlink="http://www.w3.org/1999/xlink" version="1.1" id="Layer_1" x="0px" y="0px" viewBox="0 0 512 512" style="enable-background:new 0 0 512 512;" xml:space="preserve" width="512px" height="512px">
<g>
	<g>
		<path d="M504.858,470.377L356.034,321.554c-5.086,6.289-10.523,12.356-16.322,18.156c-5.799,5.801-11.867,11.238-18.159,16.324    l148.825,148.825C475.14,509.619,481.38,512,487.62,512c6.24,0,12.48-2.381,17.239-7.144    C514.38,495.336,514.38,479.9,504.858,470.377z" fill="#FFFFFF"/>
	</g>
</g>
<g>
	<g>
		<path d="M178.801,0C80.051-0.002,0,80.051,0,178.8s80.051,178.803,178.8,178.803c40.612,0,78.056-13.549,108.076-36.363    c12.953-9.843,24.521-21.41,34.364-34.362c22.814-30.021,36.363-67.465,36.363-108.078C357.604,80.049,277.55,0,178.801,0z     M268.201,203.181c0,0,0,0-0.002,0c-13.465,0-24.381-10.918-24.379-24.381c0.002-17.367-6.762-33.693-19.043-45.976    c-12.281-12.281-28.607-19.043-45.974-19.043c-13.465,0.002-24.383-10.914-24.383-24.379c0-13.465,10.915-24.381,24.379-24.383    c30.393-0.002,58.966,11.835,80.459,33.326c21.491,21.493,33.326,50.067,33.324,80.459    C292.58,192.267,281.664,203.181,268.201,203.181z" fill="#FFFFFF"/>
	</g>
</g>
<g>
</g>
<g>
</g>
<g>
</g>
<g>
</g>
<g>
</g>
<g>
</g>
<g>
</g>
<g>
</g>
<g>
</g>
<g>
</g>
<g>
</g>
<g>
</g>
<g>
</g>
<g>
</g>
<g>
</g>
</svg>
